<svg xmlns="http://www.w3.org/2000/svg" viewBox="0 0 144.67 144.67"><defs><style>.cls-1{fill:#1e1e1e;}</style></defs><g id="Layer_2" data-name="Layer 2"><g id="Layer_1-2" data-name="Layer 1"><path class="cls-1" d="M134.58,83A10.08,10.08,0,0,0,124.5,93.08v27.66a3.77,3.77,0,0,1-3.76,3.76H23.92a3.77,3.77,0,0,1-3.75-3.76V93.08A10.09,10.09,0,0,0,0,93.08v27.66a24,24,0,0,0,23.92,23.93h96.82a24,24,0,0,0,23.93-23.93V93.08A10.08,10.08,0,0,0,134.58,83Z"/><path class="cls-1" d="M65.2,100.21l.09.07a9.48,9.48,0,0,0,1.43,1.17c.2.14.42.23.63.35a10.45,10.45,0,0,0,1.1.58c.32.14.67.21,1,.32s.56.2.86.26a9.77,9.77,0,0,0,4,0c.13,0,.25-.09.39-.12a9.74,9.74,0,0,0,1.48-.46c.33-.14.62-.33.93-.49s.54-.27.8-.44a9.85,9.85,0,0,0,1.42-1.16l.09-.08,34.59-34.58A10.08,10.08,0,0,0,99.79,51.37L82.42,68.74V10.08a10.09,10.09,0,0,0-20.17,0V68.73L44.88,51.37A10.08,10.08,0,0,0,30.62,65.63Z"/></g></g></svg>