<svg xmlns="http://www.w3.org/2000/svg" viewBox="0 0 103.17 89.34"><defs><style>.cls-1{fill:#1e1e1e;}</style></defs><g id="Layer_2" data-name="Layer 2"><g id="Layer_1-2" data-name="Layer 1"><path class="cls-1" d="M100.21,51.8l.07-.09a9.48,9.48,0,0,0,1.17-1.43c.14-.2.23-.42.35-.63a10.45,10.45,0,0,0,.58-1.1,8.48,8.48,0,0,0,.32-1c.08-.29.2-.56.26-.86a9.77,9.77,0,0,0,0-4c0-.13-.09-.25-.12-.38a9.52,9.52,0,0,0-.46-1.49c-.14-.33-.33-.62-.49-.92s-.27-.55-.44-.8a9.94,9.94,0,0,0-1.16-1.43l-.08-.09L65.63,3A10.08,10.08,0,0,0,51.37,17.21L68.74,34.59H10.08a10.09,10.09,0,0,0,0,20.17H68.73L51.37,72.12A10.08,10.08,0,0,0,65.63,86.38Z"/></g></g></svg>