<svg xmlns="http://www.w3.org/2000/svg" viewBox="0 0 151.95 151.95"><defs><style>.cls-1{fill:#1e1e1e;}</style></defs><g id="Layer_2" data-name="Layer 2"><g id="Layer_1-2" data-name="Layer 1"><path class="cls-1" d="M76,52.05A23.93,23.93,0,1,0,99.9,76,23.95,23.95,0,0,0,76,52.05Zm0,39A15.12,15.12,0,1,1,91.09,76,15.13,15.13,0,0,1,76,91.09Z"/><path class="cls-1" d="M128.17,97.24a6.3,6.3,0,0,1,5.77-3.84h.59a17.42,17.42,0,0,0,0-34.84h-1.08A6.33,6.33,0,0,1,128,55.37a4.52,4.52,0,0,0-.33-1.21,6.26,6.26,0,0,1,1.22-6.94l.4-.4a17.43,17.43,0,0,0-24.64-24.65l-.35.35a6.41,6.41,0,0,1-4.4,1.8,6.09,6.09,0,0,1-4.55-1.84A6.32,6.32,0,0,1,93.4,18v-.59a17.42,17.42,0,0,0-34.84,0v1.09A6.31,6.31,0,0,1,55.36,24a4.22,4.22,0,0,0-1.2.34,6.28,6.28,0,0,1-6.94-1.23l-.4-.4A17.43,17.43,0,1,0,22.18,47.34l.35.36a6.42,6.42,0,0,1,1.16,7.24A6.26,6.26,0,0,1,18,59.08h-.59a17.42,17.42,0,0,0,0,34.84h1.06a6.41,6.41,0,0,1,4.61,10.81l-.4.4a17.43,17.43,0,0,0,24.64,24.65l.37-.36a6.4,6.4,0,0,1,7.23-1.16A6.26,6.26,0,0,1,59.08,134v.58a17.42,17.42,0,1,0,34.83,0v-1.06a6.42,6.42,0,0,1,10.83-4.6l.39.39a17.43,17.43,0,1,0,24.64-24.65l-.35-.35a6.3,6.3,0,0,1-1.27-7Zm-8.09-3.5a15.1,15.1,0,0,0,3.07,16.72l.39.39a8.59,8.59,0,0,1,0,12.18,8.83,8.83,0,0,1-12.18,0l-.44-.45A15.24,15.24,0,0,0,85.1,133.43v1.1a8.61,8.61,0,1,1-17.21,0v-.69a15,15,0,0,0-9.65-13.75,15.29,15.29,0,0,0-6.14-1.3,15.13,15.13,0,0,0-10.6,4.36l-.39.39a8.83,8.83,0,0,1-12.19,0,8.61,8.61,0,0,1,0-12.17l.45-.45A15.24,15.24,0,0,0,18.52,85.1h-1.1a8.61,8.61,0,1,1,0-17.21h.69a15,15,0,0,0,13.75-9.65A15.07,15.07,0,0,0,28.8,41.5l-.39-.39A8.61,8.61,0,0,1,40.58,28.92l.44.43a15.06,15.06,0,0,0,15.81,3.39,4.53,4.53,0,0,0,1.36-.34,15.13,15.13,0,0,0,9.18-13.88v-1.1a8.61,8.61,0,1,1,17.21,0v.63a15.08,15.08,0,0,0,4.57,10.72A14.91,14.91,0,0,0,100,33.13a15.17,15.17,0,0,0,10.49-4.32l.39-.4A8.62,8.62,0,0,1,123,40.59l-.43.43a15.06,15.06,0,0,0-3.39,15.81,4.67,4.67,0,0,0,.34,1.37,15.13,15.13,0,0,0,13.88,9.17h1.1a8.61,8.61,0,0,1,0,17.22h-.6A15.12,15.12,0,0,0,120.08,93.74Z"/></g></g></svg>